<svg width="375" height="373" viewBox="0 0 375 373" fill="none" xmlns="http://www.w3.org/2000/svg">
<path fill-rule="evenodd" clip-rule="evenodd" d="M0 265.7L319.689 0H375V73.607L0 313.664V265.7Z" fill="url(#paint0_linear_141_140)"/>
<path fill-rule="evenodd" clip-rule="evenodd" d="M375 318.687L0 102V221.176L375 360.228V318.687Z" fill="url(#paint1_linear_141_140)"/>
<path opacity="0.558" d="M350.477 178.678L334.92 163.121C333.749 161.95 331.849 161.95 330.678 163.121L315.121 178.678C313.95 179.849 313.95 181.749 315.121 182.92L330.678 198.477C331.849 199.648 333.749 199.648 334.92 198.477L350.477 182.92C351.648 181.749 351.648 179.849 350.477 178.678Z" fill="url(#paint2_linear_141_140)"/>
<path opacity="0.387" d="M128.021 365.657L123.071 360.707C122.681 360.317 122.047 360.317 121.657 360.707L116.707 365.657C116.317 366.047 116.317 366.681 116.707 367.071L121.657 372.021C122.047 372.411 122.681 372.411 123.071 372.021L128.021 367.071C128.411 366.681 128.411 366.047 128.021 365.657Z" fill="url(#paint3_linear_141_140)"/>
<path opacity="0.387" d="M176.749 344.021L165.435 332.707C165.045 332.317 164.411 332.317 164.021 332.707L152.707 344.021C152.317 344.411 152.317 345.045 152.707 345.435L164.021 356.749C164.411 357.139 165.045 357.139 165.435 356.749L176.749 345.435C177.139 345.045 177.139 344.411 176.749 344.021Z" fill="url(#paint4_linear_141_140)"/>
<path opacity="0.387" d="M148.921 86.1922L140.436 77.7069C140.045 77.3164 139.412 77.3164 139.022 77.7069L130.536 86.1922C130.146 86.5827 130.146 87.2159 130.536 87.6064L139.022 96.0917C139.412 96.4822 140.045 96.4822 140.436 96.0917L148.921 87.6064C149.312 87.2159 149.312 86.5827 148.921 86.1922Z" fill="url(#paint5_linear_141_140)"/>
<path opacity="0.387" d="M336.334 343.314L325.727 332.708C325.337 332.317 324.703 332.317 324.313 332.708L313.706 343.314C313.316 343.705 313.316 344.338 313.706 344.729L324.313 355.335C324.703 355.726 325.337 355.726 325.727 355.335L336.334 344.729C336.724 344.338 336.724 343.705 336.334 343.314Z" fill="url(#paint6_linear_141_140)"/>
<path opacity="0.503" d="M91.1751 280.376L65.7192 254.92C64.5476 253.748 62.6482 253.748 61.4766 254.92L36.0207 280.376C34.8492 281.547 34.8492 283.447 36.0207 284.618L61.4766 310.074C62.6482 311.246 64.5476 311.246 65.7192 310.074L91.1751 284.618C92.3466 283.447 92.3466 281.547 91.1751 280.376Z" fill="url(#paint7_linear_141_140)"/>
<defs>
<linearGradient id="paint0_linear_141_140" x1="830.254" y1="-323.077" x2="121.807" y2="472.029" gradientUnits="userSpaceOnUse">
<stop stop-color="#068BE4"/>
<stop offset="0.073" stop-color="#0077C7"/>
<stop offset="1" stop-color="#0061A7" stop-opacity="0"/>
</linearGradient>
<linearGradient id="paint1_linear_141_140" x1="-420.48" y1="-172.925" x2="105.566" y2="586.93" gradientUnits="userSpaceOnUse">
<stop stop-color="#068BE4"/>
<stop offset="1" stop-color="#0061A7" stop-opacity="0"/>
</linearGradient>
<linearGradient id="paint2_linear_141_140" x1="336.101" y1="166.284" x2="332.853" y2="218.705" gradientUnits="userSpaceOnUse">
<stop stop-color="#18A0FB"/>
<stop offset="1" stop-color="#0077C7"/>
</linearGradient>
<linearGradient id="paint3_linear_141_140" x1="123.425" y1="361.698" x2="122.381" y2="378.548" gradientUnits="userSpaceOnUse">
<stop stop-color="#18A0FB"/>
<stop offset="1" stop-color="#0077C7"/>
</linearGradient>
<linearGradient id="paint4_linear_141_140" x1="166.85" y1="335.397" x2="164.762" y2="369.096" gradientUnits="userSpaceOnUse">
<stop stop-color="#18A0FB"/>
<stop offset="1" stop-color="#0077C7"/>
</linearGradient>
<linearGradient id="paint5_linear_141_140" x1="141.38" y1="79.6417" x2="139.755" y2="105.852" gradientUnits="userSpaceOnUse">
<stop stop-color="#18A0FB"/>
<stop offset="1" stop-color="#0077C7"/>
</linearGradient>
<linearGradient id="paint6_linear_141_140" x1="327.024" y1="335.209" x2="325.052" y2="367.036" gradientUnits="userSpaceOnUse">
<stop stop-color="#18A0FB"/>
<stop offset="1" stop-color="#0077C7"/>
</linearGradient>
<linearGradient id="paint7_linear_141_140" x1="68.5501" y1="260.724" x2="63.6781" y2="339.355" gradientUnits="userSpaceOnUse">
<stop stop-color="#18A0FB"/>
<stop offset="1" stop-color="#0077C7"/>
</linearGradient>
</defs>
</svg>
